<svg width="512" height="289" viewBox="0 0 512 289" fill="none" xmlns="http://www.w3.org/2000/svg">
<path opacity="0.302" d="M158.252 45.8654C192.625 -13.4639 236.832 -5.58441 264.24 73.3349C291.648 152.252 356.853 182.736 422.89 128.94C447.508 105.063 484.733 104.239 500.249 166.449C503.94 187.344 505.565 199.514 505.122 202.955H0.400253C0.400253 182.906 9.11909 162.429 26.5585 141.527C66.8709 97.7921 123.879 105.195 158.252 45.8654Z" fill="url(#paint0_linear_2852_8565)"/>
<path opacity="0.302" d="M271.846 220.657C271.846 220.657 154.688 220.657 96.5988 158.435C60.1019 119.956 21.734 140.496 7.94501 228.337C7.92571 229.397 95.8916 229.397 271.846 228.337V220.657Z" fill="url(#paint1_linear_2852_8565)"/>
<path d="M369.589 24.4853H244.272C242.405 24.4853 240.615 25.226 239.295 26.5445C237.975 27.8631 237.234 29.6514 237.234 31.5161V222.966C237.234 224.831 237.975 226.619 239.295 227.938C240.615 229.256 242.405 229.997 244.272 229.997H369.589C371.456 229.997 373.246 229.256 374.565 227.938C375.885 226.619 376.627 224.831 376.627 222.966V31.5161C376.627 29.6514 375.885 27.8631 374.565 26.5445C373.246 25.226 371.456 24.4853 369.589 24.4853Z" fill="url(#paint2_linear_2852_8565)"/>
<path d="M380.416 24.4853H255.098C253.232 24.4853 251.442 25.226 250.122 26.5445C248.802 27.8631 248.061 29.6514 248.061 31.5161V222.966C248.061 224.831 248.802 226.619 250.122 227.938C251.442 229.256 253.232 229.997 255.098 229.997H380.416C382.282 229.997 384.072 229.256 385.392 227.938C386.712 226.619 387.453 224.831 387.453 222.966V31.5161C387.453 29.6514 386.712 27.8631 385.392 26.5445C384.072 25.226 382.282 24.4853 380.416 24.4853Z" fill="url(#paint3_linear_2852_8565)"/>
<path d="M368.106 52.8787H267.409C266.944 52.8787 266.498 53.0635 266.169 53.3923C265.839 53.7211 265.654 54.1671 265.654 54.6321V59.6396C265.654 60.1046 265.839 60.5506 266.169 60.8794C266.498 61.2082 266.944 61.3929 267.409 61.3929H368.106C368.572 61.3929 369.018 61.2082 369.347 60.8794C369.676 60.5506 369.861 60.1046 369.861 59.6396V54.6321C369.861 54.1671 369.676 53.7211 369.347 53.3923C369.018 53.0635 368.572 52.8787 368.106 52.8787ZM368.106 73.1595H267.409C266.944 73.1595 266.498 73.3443 266.169 73.6731C265.839 74.0019 265.654 74.4479 265.654 74.9129V79.9204C265.654 80.3854 265.839 80.8314 266.169 81.1602C266.498 81.489 266.944 81.6737 267.409 81.6737H368.106C368.572 81.6737 369.018 81.489 369.347 81.1602C369.676 80.8314 369.861 80.3854 369.861 79.9204V74.9129C369.861 74.4479 369.676 74.0019 369.347 73.6731C369.018 73.3443 368.572 73.1595 368.106 73.1595ZM316.679 93.4403H267.409C266.944 93.4403 266.498 93.6251 266.169 93.9539C265.839 94.2827 265.654 94.7287 265.654 95.1937V100.201C265.654 100.666 265.839 101.112 266.169 101.441C266.498 101.77 266.944 101.955 267.409 101.955H316.679C317.145 101.955 317.591 101.77 317.92 101.441C318.249 101.112 318.434 100.666 318.434 100.201V95.1937C318.434 94.7287 318.249 94.2827 317.92 93.9539C317.591 93.6251 317.145 93.4403 316.679 93.4403Z" fill="#EBEBF2"/>
<path d="M149.266 228.645C162.72 228.645 173.628 217.748 173.628 204.309C173.628 190.868 162.72 179.971 149.266 179.971C135.813 179.971 124.907 190.868 124.907 204.309C124.907 217.748 135.813 228.645 149.266 228.645Z" fill="url(#paint4_linear_2852_8565)"/>
<path d="M150.619 190.787C150.619 190.429 150.477 190.085 150.223 189.831C149.969 189.578 149.625 189.435 149.266 189.435C148.908 189.435 148.563 189.578 148.31 189.831C148.056 190.085 147.913 190.429 147.913 190.787V196.196C147.913 196.555 148.056 196.899 148.31 197.152C148.563 197.406 148.908 197.548 149.266 197.548C149.625 197.548 149.969 197.406 150.223 197.152C150.477 196.899 150.619 196.555 150.619 196.196V190.787Z" fill="#16878F"/>
<path opacity="0.9" d="M159.003 194.82C159.215 194.543 159.312 194.195 159.274 193.849C159.236 193.502 159.065 193.184 158.798 192.96C158.53 192.736 158.187 192.624 157.839 192.647C157.49 192.669 157.165 192.825 156.929 193.082L153.45 197.225C153.336 197.361 153.25 197.518 153.196 197.688C153.143 197.857 153.123 198.035 153.139 198.212C153.17 198.569 153.342 198.899 153.617 199.13C153.892 199.36 154.247 199.472 154.605 199.441C154.962 199.409 155.292 199.238 155.523 198.963L159.003 194.82Z" fill="#16878F"/>
<path opacity="0.7" d="M162.831 203.292C163.006 203.261 163.173 203.196 163.323 203.101C163.473 203.005 163.602 202.881 163.704 202.736C163.806 202.59 163.879 202.426 163.917 202.253C163.956 202.079 163.959 201.9 163.929 201.725C163.898 201.55 163.833 201.383 163.737 201.234C163.642 201.084 163.517 200.954 163.372 200.853C163.226 200.751 163.062 200.678 162.888 200.64C162.715 200.602 162.535 200.598 162.36 200.629L157.029 201.568C156.675 201.631 156.361 201.831 156.155 202.125C155.949 202.418 155.869 202.782 155.931 203.135C155.993 203.488 156.194 203.802 156.488 204.008C156.782 204.213 157.146 204.294 157.499 204.232L162.831 203.292Z" fill="#16878F"/>
<path opacity="0.6" d="M160.311 212.239C160.622 212.418 160.991 212.467 161.338 212.374C161.684 212.281 161.98 212.055 162.159 211.744C162.339 211.433 162.387 211.064 162.295 210.718C162.202 210.371 161.975 210.076 161.664 209.897L156.976 207.193C156.666 207.032 156.307 206.997 155.972 207.095C155.636 207.192 155.352 207.415 155.178 207.718C155.003 208.02 154.952 208.377 155.035 208.716C155.118 209.055 155.329 209.348 155.623 209.536L160.311 212.239Z" fill="#16878F"/>
<path opacity="0.5" d="M152.624 217.476C152.685 217.643 152.778 217.796 152.898 217.927C153.018 218.058 153.163 218.164 153.324 218.239C153.485 218.314 153.659 218.357 153.837 218.364C154.014 218.372 154.192 218.345 154.359 218.284C154.525 218.223 154.679 218.13 154.81 218.01C154.941 217.89 155.047 217.745 155.122 217.584C155.197 217.424 155.24 217.249 155.247 217.072C155.255 216.895 155.228 216.717 155.167 216.551L153.315 211.469C153.193 211.133 152.941 210.858 152.616 210.707C152.291 210.555 151.918 210.539 151.581 210.661C151.244 210.784 150.969 211.035 150.818 211.36C150.666 211.685 150.65 212.057 150.772 212.394L152.624 217.476Z" fill="#16878F"/>
<path opacity="0.4" d="M143.366 216.551C143.305 216.718 143.278 216.895 143.286 217.072C143.293 217.25 143.336 217.424 143.411 217.585C143.563 217.91 143.838 218.162 144.175 218.285C144.513 218.407 144.885 218.391 145.211 218.24C145.536 218.088 145.788 217.814 145.911 217.476L147.762 212.393C147.823 212.227 147.85 212.049 147.842 211.872C147.835 211.694 147.792 211.52 147.717 211.359C147.641 211.198 147.535 211.054 147.404 210.934C147.273 210.814 147.119 210.721 146.952 210.66C146.785 210.6 146.608 210.572 146.43 210.58C146.253 210.588 146.078 210.631 145.917 210.706C145.756 210.781 145.611 210.887 145.491 211.018C145.371 211.149 145.278 211.303 145.218 211.469L143.366 216.551Z" fill="#16878F"/>
<path opacity="0.3" d="M136.871 209.897C136.708 209.981 136.565 210.097 136.449 210.239C136.333 210.38 136.246 210.543 136.195 210.718C136.144 210.894 136.129 211.078 136.151 211.259C136.173 211.441 136.231 211.616 136.322 211.774C136.414 211.933 136.536 212.071 136.683 212.18C136.829 212.29 136.996 212.369 137.174 212.412C137.351 212.456 137.536 212.463 137.717 212.433C137.897 212.403 138.07 212.337 138.224 212.239L142.912 209.536C143.206 209.348 143.416 209.055 143.499 208.716C143.582 208.377 143.531 208.02 143.357 207.718C143.182 207.415 142.898 207.192 142.563 207.095C142.228 206.997 141.868 207.032 141.558 207.193L136.871 209.897Z" fill="#16878F"/>
<path opacity="0.2" d="M136.174 200.629C135.821 200.566 135.457 200.647 135.163 200.853C134.869 201.058 134.668 201.372 134.606 201.725C134.544 202.079 134.624 202.442 134.83 202.736C135.036 203.03 135.35 203.23 135.704 203.292L141.035 204.232C141.389 204.294 141.753 204.213 142.047 204.008C142.341 203.802 142.541 203.488 142.604 203.135C142.666 202.782 142.585 202.418 142.379 202.125C142.174 201.831 141.859 201.631 141.506 201.568L136.174 200.629Z" fill="#16878F"/>
<path opacity="0.1" d="M141.604 193.082C141.49 192.946 141.35 192.834 141.192 192.752C141.035 192.67 140.863 192.62 140.686 192.605C140.509 192.589 140.33 192.609 140.161 192.662C139.991 192.715 139.834 192.802 139.698 192.916C139.562 193.03 139.45 193.17 139.368 193.327C139.286 193.484 139.236 193.656 139.22 193.833C139.205 194.01 139.224 194.188 139.277 194.358C139.331 194.527 139.417 194.684 139.531 194.82L143.012 198.963C143.242 199.238 143.573 199.409 143.93 199.441C144.287 199.472 144.643 199.36 144.917 199.13C145.192 198.899 145.364 198.569 145.396 198.212C145.427 197.855 145.315 197.5 145.084 197.225L141.604 193.082Z" fill="#16878F"/>
<path opacity="0.398" d="M42.3535 214.473C67.4957 225.091 87.9414 217.908 103.694 192.919C127.32 155.438 159.187 153.183 183.882 177.267C208.578 201.351 223.366 224.882 273.118 220.783C300.075 217.885 318.289 195.274 327.759 152.95" stroke="url(#paint5_linear_2852_8565)" stroke-width="0.881" stroke-linecap="round" stroke-dasharray="2.64 2.64"/>
<path fill-rule="evenodd" clip-rule="evenodd" d="M318.805 129.028C319.24 129.585 327.236 140.033 342.788 160.37L332.155 161.633C322.82 139.339 318.369 128.47 318.805 129.028Z" fill="#16878F" fill-opacity="0.23"/>
<path fill-rule="evenodd" clip-rule="evenodd" d="M318.805 129.028C319.075 129.925 320.398 142.732 322.774 167.45L332.155 161.633C322.985 138.999 318.536 128.13 318.805 129.028Z" fill="#16878F"/>
<path fill-rule="evenodd" clip-rule="evenodd" d="M318.805 129.028L311.65 164.678L325.066 161.538L318.805 129.028Z" fill="#16878F" fill-opacity="0.23"/>
<defs>
<linearGradient id="paint0_linear_2852_8565" x1="252.797" y1="6.90809" x2="252.797" y2="202.955" gradientUnits="userSpaceOnUse">
<stop stop-color="#DCDCE4"/>
<stop offset="1" stop-color="#DEDEE6" stop-opacity="0"/>
</linearGradient>
<linearGradient id="paint1_linear_2852_8565" x1="139.895" y1="139.897" x2="139.895" y2="229.133" gradientUnits="userSpaceOnUse">
<stop stop-color="#DCDCE4"/>
<stop offset="1" stop-color="#DEDEE6" stop-opacity="0"/>
</linearGradient>
<linearGradient id="paint2_linear_2852_8565" x1="306.93" y1="24.4853" x2="306.93" y2="229.997" gradientUnits="userSpaceOnUse">
<stop stop-color="#ECECF0"/>
<stop offset="1" stop-color="#D8D8E4"/>
</linearGradient>
<linearGradient id="paint3_linear_2852_8565" x1="317.757" y1="24.4853" x2="317.757" y2="213.461" gradientUnits="userSpaceOnUse">
<stop stop-color="#F8F8FB"/>
<stop offset="1" stop-color="#FAFAFE"/>
</linearGradient>
<linearGradient id="paint4_linear_2852_8565" x1="145.361" y1="184.116" x2="159.299" y2="225.494" gradientUnits="userSpaceOnUse">
<stop stop-color="white"/>
<stop offset="1" stop-color="#E8E8EF"/>
</linearGradient>
<linearGradient id="paint5_linear_2852_8565" x1="70.1404" y1="188.86" x2="180.217" y2="156.804" gradientUnits="userSpaceOnUse">
<stop stop-color="#16878F" stop-opacity="0"/>
<stop offset="1" stop-color="#16878F"/>
</linearGradient>
</defs>
</svg>
